<svg xmlns="http://www.w3.org/2000/svg" width="67" height="17" fill="none"><path fill="#222" d="M8.316 16.104c-1.188 0-2.288-.198-3.3-.594a8.37 8.37 0 0 1-2.64-1.716 8.106 8.106 0 0 1-1.76-2.552C.206 10.259 0 9.196 0 8.052c0-1.159.213-2.222.638-3.19A7.75 7.75 0 0 1 2.464 2.31 8.201 8.201 0 0 1 5.17.616 8.972 8.972 0 0 1 8.492 0c1.393 0 2.655.25 3.784.748 1.13.484 2.046 1.159 2.75 2.024l-2.64 2.64c-.528-.63-1.107-1.1-1.738-1.408-.63-.323-1.364-.484-2.2-.484-.85 0-1.613.19-2.288.572a4.152 4.152 0 0 0-1.584 1.562c-.396.675-.594 1.467-.594 2.376 0 .91.183 1.709.55 2.398.381.69.895 1.225 1.54 1.606.66.381 1.415.572 2.266.572.85 0 1.57-.161 2.156-.484a3.166 3.166 0 0 0 1.364-1.408c.323-.616.484-1.35.484-2.2l2.662 1.716-7.106-.176V6.842h8.404v.594c0 1.863-.337 3.44-1.012 4.73-.675 1.29-1.613 2.273-2.816 2.948-1.188.66-2.574.99-4.158.99ZM23.342 16.104c-1.202 0-2.266-.235-3.19-.704a5.523 5.523 0 0 1-2.178-2.002c-.528-.85-.792-1.826-.792-2.926 0-1.085.257-2.046.77-2.882a5.483 5.483 0 0 1 2.09-2.002c.895-.499 1.9-.748 3.014-.748 1.086 0 2.046.235 2.882.704a4.88 4.88 0 0 1 1.98 1.914c.484.807.726 1.73.726 2.772 0 .22-.014.447-.044.682-.014.22-.058.477-.132.77l-9.482.044V9.262l7.964-.066-1.716 1.078c-.014-.601-.102-1.093-.264-1.474-.161-.396-.396-.697-.704-.902-.308-.205-.696-.308-1.166-.308-.484 0-.902.117-1.254.352a2.273 2.273 0 0 0-.814.99c-.19.425-.286.939-.286 1.54 0 .616.103 1.144.308 1.584.206.425.499.748.88.968.382.22.851.33 1.408.33.528 0 .99-.088 1.386-.264.411-.176.778-.447 1.1-.814l2.002 2.002a5.056 5.056 0 0 1-1.936 1.364c-.748.308-1.598.462-2.552.462ZM31.564 15.862V.66h3.828v15.202h-3.828Zm-2.376-7.568v-3.19h15.554v3.19H29.188Zm9.35 7.568V.66h3.828v15.202h-3.828ZM51.337 16.104c-1.203 0-2.267-.235-3.19-.704a5.523 5.523 0 0 1-2.178-2.002c-.529-.85-.793-1.826-.793-2.926 0-1.085.257-2.046.77-2.882a5.483 5.483 0 0 1 2.09-2.002c.895-.499 1.9-.748 3.014-.748 1.086 0 2.047.235 2.883.704a4.882 4.882 0 0 1 1.98 1.914c.484.807.726 1.73.726 2.772 0 .22-.015.447-.045.682-.014.22-.058.477-.132.77l-9.482.044V9.262l7.965-.066-1.717 1.078c-.014-.601-.102-1.093-.264-1.474-.16-.396-.395-.697-.703-.902-.309-.205-.697-.308-1.167-.308-.483 0-.901.117-1.254.352a2.273 2.273 0 0 0-.814.99c-.19.425-.286.939-.286 1.54 0 .616.103 1.144.308 1.584.206.425.5.748.88.968.382.22.851.33 1.409.33.527 0 .99-.088 1.385-.264.411-.176.778-.447 1.1-.814l2.002 2.002a5.057 5.057 0 0 1-1.935 1.364c-.748.308-1.6.462-2.553.462ZM58.084 15.862V5.104h3.828v10.758h-3.828Zm3.828-5.852-1.716-1.452c.425-1.217.99-2.134 1.694-2.75.704-.616 1.62-.924 2.75-.924.513 0 .954.066 1.32.198.382.132.704.337.968.616l-2.222 2.97a1.144 1.144 0 0 0-.506-.308 1.772 1.772 0 0 0-.704-.132c-.498 0-.887.154-1.166.462-.279.293-.418.733-.418 1.32Z"/></svg>