<svg xmlns="http://www.w3.org/2000/svg" width="60" height="60" fill="none"><mask id="a" width="60" height="60" x="0" y="0" maskUnits="userSpaceOnUse" style="mask-type:alpha"><path fill="#D9D9D9" d="M0 0h60v60H0z"/></mask><g mask="url(#a)"><path stroke="#000" stroke-width="2" d="M52.69 32.782 41.227 21.32H30.384M52.69 32.782 30.384 55.09M52.69 32.782H39.988M30.384 55.09 8.078 32.782M30.384 55.09l9.604-22.307M30.384 55.09 20.47 32.782m-12.392 0L19.54 21.32h10.843M8.078 32.782H20.47m19.518 0H20.47m19.518 0L30.384 21.32M20.47 32.782l9.914-11.463m-.31-17.039v8.984m17.35 3.099L53 10.786m-39.965 5.577-5.577-5.577"/></g></svg>