<svg xmlns="http://www.w3.org/2000/svg" width="60" height="60" fill="none"><mask id="a" width="60" height="60" x="0" y="0" maskUnits="userSpaceOnUse" style="mask-type:alpha"><path fill="#D9D9D9" d="M0 0h60v60H0z"/></mask><g fill="#000" clip-path="url(#b)"><path d="M38.582 5.517c-.105.02-.431.087-.719.144-.297.058-5.59 2.311-11.976 5.082l-11.45 4.977h-2.215c-2.483 0-3.059.086-4.018.594a5.222 5.222 0 0 0-2.493 3.002l-.211.671v30.397l.22.624c.576 1.582 1.698 2.704 3.29 3.28l.613.22h19.274c18.44 0 19.303-.01 19.85-.173 1.764-.546 3.203-2.023 3.586-3.71.058-.26.105-2.053.105-4.479V42.1l.441-.22c.586-.288 1.228-1.017 1.449-1.64.153-.46.172-.902.172-5.198v-4.699l-.25-.527c-.297-.614-.901-1.247-1.438-1.487l-.374-.172V24.12c0-4.46-.019-4.66-.595-5.744-.623-1.16-2.205-2.34-3.365-2.513l-.413-.067-1.802-3.605c-.997-1.985-1.995-3.884-2.225-4.21-.786-1.102-2.004-1.946-3.27-2.272-.613-.163-1.86-.268-2.186-.192Zm1.535 2.1c.786.211 1.409.576 1.956 1.15.413.432.94 1.267.853 1.343-.019.01-2.752 1.285-6.089 2.82l-6.06 2.79h-5.581c-3.213 0-5.552-.039-5.495-.087.145-.134 18.239-7.968 18.623-8.055.556-.133 1.178-.114 1.793.04Zm4.679 6.137c.508 1.026.93 1.89.93 1.918 0 .03-2.254.048-5.005.039-3.778 0-4.977-.03-4.852-.115.144-.096 7.824-3.682 7.939-3.702.029-.01.47.834.988 1.86Zm3.654 4.143c.555.201 1.313.853 1.63 1.41.392.68.44 1.198.44 5.043v3.644h-3.922c-4.257 0-4.775.048-5.983.528-2.906 1.17-4.794 4.334-4.392 7.374.25 1.822.806 2.972 2.072 4.228.977.988 1.908 1.535 3.183 1.89.7.191 1.007.21 4.9.249l4.152.038-.029 3.893-.029 3.903-.249.537c-.346.729-.863 1.275-1.505 1.592l-.547.268h-19.13c-18.66 0-19.14 0-19.61-.182-.623-.25-1.409-.987-1.687-1.62l-.23-.5V19.988l.24-.48c.316-.651 1.035-1.332 1.649-1.572.508-.192.681-.192 19.542-.201 17.913 0 19.063.01 19.505.163Zm3.758 12.437.326.326v4.372c0 4.814 0 4.795-.585 5.092-.25.134-.863.153-5.005.125-4.603-.03-4.728-.039-5.284-.25-2.052-.767-3.337-2.455-3.481-4.574-.153-2.31 1.323-4.468 3.567-5.187.662-.22.748-.22 5.399-.23h4.737l.326.326Z"/><path d="M42.197 32.28c-.575.202-1.38.978-1.659 1.582-.306.691-.316 1.841-.018 2.484a3.174 3.174 0 0 0 1.447 1.496c.72.355 1.832.374 2.532.058a3.28 3.28 0 0 0 1.563-1.573c.22-.508.259-.681.22-1.323-.076-1.726-1.313-2.896-3.03-2.877-.355 0-.825.067-1.055.154Zm1.496 1.89c.566.297.777.805.556 1.342-.163.402-.489.633-.892.633-.661 0-1.083-.412-1.083-1.074 0-.403.22-.729.614-.901.384-.163.489-.163.805 0Z"/></g><defs><clipPath id="b"><path fill="#fff" d="M5 5h50v50H5z"/></clipPath></defs></svg>