<svg xmlns="http://www.w3.org/2000/svg" width="70" height="70" fill="none"><path fill="#000" fill-rule="evenodd" d="M35 27.708a7.292 7.292 0 1 0 0 14.584 7.292 7.292 0 0 0 0-14.584ZM24.792 35c0-5.638 4.57-10.208 10.208-10.208S45.208 29.362 45.208 35 40.638 45.208 35 45.208 24.792 40.638 24.792 35Z" clip-rule="evenodd"/><path fill="#000" fill-rule="evenodd" d="M27.708 4.375h14.584v6.921a24.793 24.793 0 0 1 4.3 1.795l4.91-4.91 10.416 10.305-4.924 4.924a25.288 25.288 0 0 1 1.79 4.298h6.841v14.584h-7.016a25.288 25.288 0 0 1-1.79 4.298l4.918 4.918-10.316 10.317-4.916-4.916a24.793 24.793 0 0 1-4.3 1.795v6.921H27.62v-6.921a24.793 24.793 0 0 1-4.3-1.795l-4.917 4.916L8.088 51.508l4.918-4.918a25.288 25.288 0 0 1-1.79-4.298H4.375V27.708h6.928a25.288 25.288 0 0 1 1.79-4.298l-4.918-4.918L18.492 8.175l4.916 4.916a24.793 24.793 0 0 1 4.3-1.795V4.375ZM13.971 28.964v1.661H7.29v8.75h6.592v1.661a22.375 22.375 0 0 0 2.19 5.066l.573.973-4.434 4.433 6.192 6.192 4.437-4.436.974.578a21.876 21.876 0 0 0 5.633 2.351l1.09.285v6.23h8.75v-6.23l1.09-.285a21.876 21.876 0 0 0 5.632-2.351l.974-.578 4.437 4.436 6.192-6.192-4.434-4.433.572-.973a22.377 22.377 0 0 0 2.246-5.257l.025-.091.591-1.379h6.095v-8.75h-6.591v-1.661a22.375 22.375 0 0 0-2.19-5.066l-.573-.973 4.428-4.428-6.268-6.203-4.442 4.442-.974-.578a21.876 21.876 0 0 0-5.633-2.351l-1.09-.285v-6.23h-8.75v6.23l-1.09.285a21.876 21.876 0 0 0-5.633 2.351l-.974.578-4.436-4.436-6.192 6.192 4.433 4.433-.572.973a22.375 22.375 0 0 0-2.19 5.066Z" clip-rule="evenodd"/></svg>