<svg xmlns="http://www.w3.org/2000/svg" width="60" height="60" fill="none"><mask id="a" width="60" height="60" x="0" y="0" maskUnits="userSpaceOnUse" style="mask-type:alpha"><path fill="#D9D9D9" d="M0 0h60v60H0z"/></mask><path fill="#000" fill-rule="evenodd" d="M30 5c-7.023 5.97-11.425 6.25-18.75 6.25v24.031c0 9.59 6.673 12.092 18.75 19.719 12.077-7.627 18.75-10.13 18.75-19.719V11.25c-7.325 0-11.727-.28-18.75-6.25Zm0 2.692c6.13 4.812 10.667 5.53 16.667 5.627V35.28c0 8.107-5.496 10.298-16.667 17.259-11.198-6.98-16.667-9.196-16.667-17.259V13.32c6-.096 10.538-.815 16.667-5.627Zm10.417 16.123L27.933 37.612l-7.65-8.19L21.743 28l6.267 6.633L38.9 22.387l1.517 1.428Z" clip-rule="evenodd"/></svg>